<svg xmlns="http://www.w3.org/2000/svg" width="21" height="15" viewBox="0 0 41.75 29">
  <defs>
    <style>
      .cls-1 {
        fill: #242324;
        fill-rule: evenodd;
      }
    </style>
  </defs>
  <path id="Phone_copy" data-name="Phone copy" class="cls-1" d="M155,1500.72a12.365,12.365,0,0,1,5.378,4.43l2.993,9.2v4.51c0,2.65-2.878,2.76-2.878,2.76H137.124a2.53,2.53,0,0,1-2.763-2.76v-4.74c-0.051.86,2.763-9,2.763-9a9.772,9.772,0,0,1,5.562-4.34v-1.44a2.438,2.438,0,0,1,2.682-2.54h6.906a2.7,2.7,0,0,1,2.805,2.76Zm-16.182-2.83c0.288,0.71,1.172,2.24,1.172,2.24l-9.821,4.97-1.684-3.39a3.427,3.427,0,0,1,1.69-4.94l2.874-1.54a39.991,39.991,0,0,1,14.783-2.61h1.727c11.222,0,15.129,2.61,15.129,2.61l2.873,1.54a3.426,3.426,0,0,1,1.689,4.94l-1.8,3.39-9.706-4.97a13.32,13.32,0,0,0,1.159-2.16c0.214-.52.229-0.1-0.065-0.35-2.643-2.25-8.936-2.24-8.936-2.24h-2.072a26.607,26.607,0,0,0-8.892,1.94C138.721,1497.45,138.5,1497.32,138.814,1497.89Zm9.972,5.79c1.869,0,3.384,1.2,3.384,2.67s-1.515,2.77-3.384,2.77-3.384-1.29-3.384-2.77S146.917,1503.68,148.786,1503.68Zm-5.4,2.69a0.735,0.735,0,1,1-.734.73A0.734,0.734,0,0,1,143.382,1506.37Zm1.36-2.76a0.735,0.735,0,1,1-.755.74A0.747,0.747,0,0,1,144.742,1503.61Zm2.784-1.38a0.755,0.755,0,1,1-.734.76A0.747,0.747,0,0,1,147.526,1502.23Zm2.719,0.05a0.71,0.71,0,1,1-.691.71A0.7,0.7,0,0,1,150.245,1502.28Zm2.741,1.38a0.71,0.71,0,1,1-.712.71A0.706,0.706,0,0,1,152.986,1503.66Zm1.4,2.76a0.731,0.731,0,1,1-.691.73A0.707,0.707,0,0,1,154.389,1506.42Zm-8.331,2.71a0.735,0.735,0,1,1-.733.73A0.734,0.734,0,0,1,146.058,1509.13Zm2.849,1.42a0.69,0.69,0,1,1-.691.69A0.692,0.692,0,0,1,148.907,1510.55Zm2.719-1.42a0.736,0.736,0,1,1-.69.73A0.713,0.713,0,0,1,151.626,1509.13Z" transform="translate(-128 -1492.62)"/>
</svg>
