<svg xmlns="http://www.w3.org/2000/svg" width="20" height="20" viewBox="0 0 39.626 39.59">
  <defs>
    <style>
      .cls-1 {
        fill: #242324;
        fill-rule: evenodd;
      }
    </style>
  </defs>
  <path id="Web_copy" data-name="Web copy" class="cls-1" d="M149.366,1749.05a19.805,19.805,0,1,1,19.812-19.81A19.835,19.835,0,0,1,149.366,1749.05Zm0.909-20.72h7.786a30.737,30.737,0,0,0-1.22-7.78h-6.566v7.78Zm7.786,1.82h-7.786v7.77h6.571A30.746,30.746,0,0,0,158.061,1730.15Zm9.274,0H159.82a32.565,32.565,0,0,1-1.145,7.77h6.446A17.9,17.9,0,0,0,167.335,1730.15Zm-3.322,9.52h-5.878a28.565,28.565,0,0,1-3.3,6.71A18.079,18.079,0,0,0,164.013,1739.67ZM152.2,1747a26.072,26.072,0,0,0,4.067-7.33h-5.992v7.53A17.428,17.428,0,0,0,152.2,1747Zm-3.742.2v-7.53h-6.427a26.163,26.163,0,0,0,4,7.24A17.666,17.666,0,0,0,148.458,1747.2Zm-5.124-1.01a28.713,28.713,0,0,1-3.174-6.52h-5.439A18.088,18.088,0,0,0,143.334,1746.19Zm-9.723-8.27h6.012a32.566,32.566,0,0,1-1.146-7.77H131.4A17.9,17.9,0,0,0,133.611,1737.92Zm-2.213-9.59h7.079a32.5,32.5,0,0,1,1.151-7.78h-6.007A17.835,17.835,0,0,0,131.4,1728.33Zm3.337-9.54h5.431a28.434,28.434,0,0,1,3.166-6.49A18.016,18.016,0,0,0,134.735,1718.79Zm13.723-7.51a17.681,17.681,0,0,0-2.431.29,25.963,25.963,0,0,0-3.989,7.22h6.42v-7.51Zm0,9.27h-7a30.692,30.692,0,0,0-1.219,7.78h8.221v-7.78Zm-8.221,9.6a30.745,30.745,0,0,0,1.214,7.77h7.007v-7.77h-8.221Zm10.038-18.87v7.51h5.986a26.041,26.041,0,0,0-4.06-7.31A17.472,17.472,0,0,0,150.275,1711.28Zm4.562,0.82a28.524,28.524,0,0,1,3.292,6.69H164A18.1,18.1,0,0,0,154.837,1712.1Zm10.274,8.45h-6.442a32.45,32.45,0,0,1,1.151,7.78h7.515A17.85,17.85,0,0,0,165.111,1720.55Z" transform="translate(-129.562 -1709.44)"/>
</svg>
